# Tiled2Unity generated file. Do not modify by hand.
# Wavefront file for 'Test-B_mesh_0004.obj'

# Vertices (Count = 44)
v 0 -240 0
v -48 -240 0
v -48 -192 0
v 0 -192 0
v -144 -240 0
v -192 -240 0
v -192 -192 0
v -144 -192 0
v -96 -336 0
v -144 -336 0
v -144 -288 0
v -96 -288 0
v -192 -384 0
v -240 -384 0
v -240 -336 0
v -192 -336 0
v -768 -384 0
v -816 -384 0
v -816 -336 0
v -768 -336 0
v -672 -432 0
v -720 -432 0
v -720 -384 0
v -672 -384 0
v -480 -480 0
v -528 -480 0
v -528 -432 0
v -480 -432 0
v -528 -480 0
v -576 -480 0
v -576 -432 0
v -528 -432 0
v -96 -576 0
v -144 -576 0
v -144 -528 0
v -96 -528 0
v -144 -576 0
v -192 -576 0
v -192 -528 0
v -144 -528 0
v -720 -576 0
v -768 -576 0
v -768 -528 0
v -720 -528 0

# Texture cooridinates (Count = 28)
vt 0.375 0.6875
vt 0.4375 0.6875
vt 0.4375 0.75
vt 0.375 0.75
vt 0.375 0.1875
vt 0.4375 0.1875
vt 0.4375 0.25
vt 0.375 0.25
vt 0.5 0.6875
vt 0.5 0.75
vt 0.5 0.875
vt 0.5625 0.875
vt 0.5625 0.9375
vt 0.5 0.9375
vt 0.25 0.75
vt 0.3125 0.75
vt 0.3125 0.8125
vt 0.25 0.8125
vt 0.375 0.125
vt 0.4375 0.125
vt 0.5 0.125
vt 0.5 0.1875
vt 0 0.75
vt 0.0625 0.75
vt 0.0625 0.8125
vt 0 0.8125
vt 0.125 0.75
vt 0.125 0.8125

# Normal
vn 0 0 -1

# Mesh description
g Test-B_mesh_0004

# Faces
f 1/1/1 2/2/1 3/3/1 4/4/1
f 5/5/1 6/6/1 7/7/1 8/8/1
f 9/2/1 10/9/1 11/10/1 12/3/1
f 13/11/1 14/12/1 15/13/1 16/14/1
f 17/1/1 18/2/1 19/3/1 20/4/1
f 21/15/1 22/16/1 23/17/1 24/18/1
f 25/19/1 26/20/1 27/6/1 28/5/1
f 29/20/1 30/21/1 31/22/1 32/6/1
f 33/23/1 34/24/1 35/25/1 36/26/1
f 37/24/1 38/27/1 39/28/1 40/25/1
f 41/2/1 42/9/1 43/10/1 44/3/1

