# Tiled2Unity generated file. Do not modify by hand.
# Wavefront file for 'Test-A_mesh_0002.obj'

# Vertices (Count = 364)
v 0 -48 0
v -48 -48 0
v -48 0 0
v 0 0 0
v -48 -48 0
v -96 -48 0
v -96 0 0
v -48 0 0
v -576 -48 0
v -624 -48 0
v -624 0 0
v -576 0 0
v -624 -48 0
v -672 -48 0
v -672 0 0
v -624 0 0
v -672 -48 0
v -720 -48 0
v -720 0 0
v -672 0 0
v 0 -96 0
v -48 -96 0
v -48 -48 0
v 0 -48 0
v -48 -96 0
v -96 -96 0
v -96 -48 0
v -48 -48 0
v -576 -96 0
v -624 -96 0
v -624 -48 0
v -576 -48 0
v -624 -96 0
v -672 -96 0
v -672 -48 0
v -624 -48 0
v -672 -96 0
v -720 -96 0
v -720 -48 0
v -672 -48 0
v -48 -144 0
v -96 -144 0
v -96 -96 0
v -48 -96 0
v -96 -144 0
v -144 -144 0
v -144 -96 0
v -96 -96 0
v -144 -144 0
v -192 -144 0
v -192 -96 0
v -144 -96 0
v -576 -144 0
v -624 -144 0
v -624 -96 0
v -576 -96 0
v -624 -144 0
v -672 -144 0
v -672 -96 0
v -624 -96 0
v -672 -144 0
v -720 -144 0
v -720 -96 0
v -672 -96 0
v -48 -192 0
v -96 -192 0
v -96 -144 0
v -48 -144 0
v -96 -192 0
v -144 -192 0
v -144 -144 0
v -96 -144 0
v -144 -192 0
v -192 -192 0
v -192 -144 0
v -144 -144 0
v -336 -192 0
v -384 -192 0
v -384 -144 0
v -336 -144 0
v -576 -192 0
v -624 -192 0
v -624 -144 0
v -576 -144 0
v -624 -192 0
v -672 -192 0
v -672 -144 0
v -624 -144 0
v -672 -192 0
v -720 -192 0
v -720 -144 0
v -672 -144 0
v -48 -240 0
v -96 -240 0
v -96 -192 0
v -48 -192 0
v -96 -240 0
v -144 -240 0
v -144 -192 0
v -96 -192 0
v -144 -240 0
v -192 -240 0
v -192 -192 0
v -144 -192 0
v -288 -240 0
v -336 -240 0
v -336 -192 0
v -288 -192 0
v -672 -240 0
v -720 -240 0
v -720 -192 0
v -672 -192 0
v -720 -240 0
v -768 -240 0
v -768 -192 0
v -720 -192 0
v -768 -240 0
v -816 -240 0
v -816 -192 0
v -768 -192 0
v -48 -288 0
v -96 -288 0
v -96 -240 0
v -48 -240 0
v -96 -288 0
v -144 -288 0
v -144 -240 0
v -96 -240 0
v -144 -288 0
v -192 -288 0
v -192 -240 0
v -144 -240 0
v -528 -288 0
v -576 -288 0
v -576 -240 0
v -528 -240 0
v -576 -288 0
v -624 -288 0
v -624 -240 0
v -576 -240 0
v -624 -288 0
v -672 -288 0
v -672 -240 0
v -624 -240 0
v -720 -288 0
v -768 -288 0
v -768 -240 0
v -720 -240 0
v -768 -288 0
v -816 -288 0
v -816 -240 0
v -768 -240 0
v -144 -336 0
v -192 -336 0
v -192 -288 0
v -144 -288 0
v -192 -336 0
v -240 -336 0
v -240 -288 0
v -192 -288 0
v -240 -336 0
v -288 -336 0
v -288 -288 0
v -240 -288 0
v -288 -336 0
v -336 -336 0
v -336 -288 0
v -288 -288 0
v -528 -336 0
v -576 -336 0
v -576 -288 0
v -528 -288 0
v -576 -336 0
v -624 -336 0
v -624 -288 0
v -576 -288 0
v -624 -336 0
v -672 -336 0
v -672 -288 0
v -624 -288 0
v -720 -336 0
v -768 -336 0
v -768 -288 0
v -720 -288 0
v -768 -336 0
v -816 -336 0
v -816 -288 0
v -768 -288 0
v -144 -384 0
v -192 -384 0
v -192 -336 0
v -144 -336 0
v -192 -384 0
v -240 -384 0
v -240 -336 0
v -192 -336 0
v -240 -384 0
v -288 -384 0
v -288 -336 0
v -240 -336 0
v -528 -384 0
v -576 -384 0
v -576 -336 0
v -528 -336 0
v -576 -384 0
v -624 -384 0
v -624 -336 0
v -576 -336 0
v -624 -384 0
v -672 -384 0
v -672 -336 0
v -624 -336 0
v -720 -384 0
v -768 -384 0
v -768 -336 0
v -720 -336 0
v -768 -384 0
v -816 -384 0
v -816 -336 0
v -768 -336 0
v -144 -432 0
v -192 -432 0
v -192 -384 0
v -144 -384 0
v -192 -432 0
v -240 -432 0
v -240 -384 0
v -192 -384 0
v -240 -432 0
v -288 -432 0
v -288 -384 0
v -240 -384 0
v -528 -432 0
v -576 -432 0
v -576 -384 0
v -528 -384 0
v -576 -432 0
v -624 -432 0
v -624 -384 0
v -576 -384 0
v -624 -432 0
v -672 -432 0
v -672 -384 0
v -624 -384 0
v -144 -480 0
v -192 -480 0
v -192 -432 0
v -144 -432 0
v -192 -480 0
v -240 -480 0
v -240 -432 0
v -192 -432 0
v -240 -480 0
v -288 -480 0
v -288 -432 0
v -240 -432 0
v -672 -480 0
v -720 -480 0
v -720 -432 0
v -672 -432 0
v -720 -480 0
v -768 -480 0
v -768 -432 0
v -720 -432 0
v -768 -480 0
v -816 -480 0
v -816 -432 0
v -768 -432 0
v 0 -528 0
v -48 -528 0
v -48 -480 0
v 0 -480 0
v -48 -528 0
v -96 -528 0
v -96 -480 0
v -48 -480 0
v -384 -528 0
v -432 -528 0
v -432 -480 0
v -384 -480 0
v -672 -528 0
v -720 -528 0
v -720 -480 0
v -672 -480 0
v -720 -528 0
v -768 -528 0
v -768 -480 0
v -720 -480 0
v -768 -528 0
v -816 -528 0
v -816 -480 0
v -768 -480 0
v 0 -576 0
v -48 -576 0
v -48 -528 0
v 0 -528 0
v -48 -576 0
v -96 -576 0
v -96 -528 0
v -48 -528 0
v -288 -576 0
v -336 -576 0
v -336 -528 0
v -288 -528 0
v -480 -576 0
v -528 -576 0
v -528 -528 0
v -480 -528 0
v -528 -576 0
v -576 -576 0
v -576 -528 0
v -528 -528 0
v -576 -576 0
v -624 -576 0
v -624 -528 0
v -576 -528 0
v -672 -576 0
v -720 -576 0
v -720 -528 0
v -672 -528 0
v -720 -576 0
v -768 -576 0
v -768 -528 0
v -720 -528 0
v -768 -576 0
v -816 -576 0
v -816 -528 0
v -768 -528 0
v 0 -624 0
v -48 -624 0
v -48 -576 0
v 0 -576 0
v -48 -624 0
v -96 -624 0
v -96 -576 0
v -48 -576 0
v -240 -624 0
v -288 -624 0
v -288 -576 0
v -240 -576 0
v -480 -624 0
v -528 -624 0
v -528 -576 0
v -480 -576 0
v -528 -624 0
v -576 -624 0
v -576 -576 0
v -528 -576 0
v -576 -624 0
v -624 -624 0
v -624 -576 0
v -576 -576 0
v -672 -624 0
v -720 -624 0
v -720 -576 0
v -672 -576 0
v -720 -624 0
v -768 -624 0
v -768 -576 0
v -720 -576 0
v -768 -624 0
v -816 -624 0
v -816 -576 0
v -768 -576 0

# Texture cooridinates (Count = 60)
vt 0.0625 0.5625
vt 0.125 0.5625
vt 0.125 0.625
vt 0.0625 0.625
vt 0.1875 0.5625
vt 0.1875 0.625
vt 0 0.9375
vt 0.0625 0.9375
vt 0.0625 1
vt 0 1
vt 0.125 0.9375
vt 0.125 1
vt 0.1875 0.9375
vt 0.1875 1
vt 0.0625 0.5
vt 0.125 0.5
vt 0.1875 0.5
vt 0 0.875
vt 0.0625 0.875
vt 0.125 0.875
vt 0.1875 0.875
vt 0.375 0.4375
vt 0.4375 0.4375
vt 0.4375 0.5
vt 0.375 0.5
vt 0 0.8125
vt 0.0625 0.8125
vt 0.125 0.8125
vt 0.1875 0.8125
vt 0.5 0.875
vt 0.5625 0.875
vt 0.5625 0.9375
vt 0.5 0.9375
vt 0 0.75
vt 0.0625 0.75
vt 0.125 0.75
vt 0.1875 0.75
vt 0.25 0.9375
vt 0.25 1
vt 0.3125 0.9375
vt 0.3125 1
vt 0 0.6875
vt 0.0625 0.6875
vt 0.125 0.6875
vt 0.1875 0.6875
vt 0.25 0.875
vt 0.3125 0.875
vt 0.5 0.5
vt 0.5 0.5625
vt 0.4375 0.5625
vt 0 0.625
vt 0.25 0.8125
vt 0.3125 0.8125
vt 0 0.5625
vt 0.25 0.75
vt 0.3125 0.75
vt 0 0.5
vt 0.375 0.9375
vt 0.375 1
vt 0.375 0.875

# Normal
vn 0 0 -1

# Mesh description
g Test-A_mesh_0002

# Faces
f 1/1/1 2/2/1 3/3/1 4/4/1
f 5/2/1 6/5/1 7/6/1 8/3/1
f 9/7/1 10/8/1 11/9/1 12/10/1
f 13/8/1 14/11/1 15/12/1 16/9/1
f 17/11/1 18/13/1 19/14/1 20/12/1
f 21/15/1 22/16/1 23/2/1 24/1/1
f 25/16/1 26/17/1 27/5/1 28/2/1
f 29/18/1 30/19/1 31/8/1 32/7/1
f 33/19/1 34/20/1 35/11/1 36/8/1
f 37/20/1 38/21/1 39/13/1 40/11/1
f 41/22/1 42/23/1 43/24/1 44/25/1
f 45/8/1 46/11/1 47/12/1 48/9/1
f 49/11/1 50/13/1 51/14/1 52/12/1
f 53/26/1 54/27/1 55/19/1 56/18/1
f 57/27/1 58/28/1 59/20/1 60/19/1
f 61/28/1 62/29/1 63/21/1 64/20/1
f 65/18/1 66/19/1 67/8/1 68/7/1
f 69/19/1 70/20/1 71/11/1 72/8/1
f 73/20/1 74/21/1 75/13/1 76/11/1
f 77/30/1 78/31/1 79/32/1 80/33/1
f 81/34/1 82/35/1 83/27/1 84/26/1
f 85/35/1 86/36/1 87/28/1 88/27/1
f 89/36/1 90/37/1 91/29/1 92/28/1
f 93/26/1 94/27/1 95/19/1 96/18/1
f 97/27/1 98/28/1 99/20/1 100/19/1
f 101/28/1 102/29/1 103/21/1 104/20/1
f 105/22/1 106/23/1 107/24/1 108/25/1
f 109/22/1 110/23/1 111/24/1 112/25/1
f 113/13/1 114/38/1 115/39/1 116/14/1
f 117/38/1 118/40/1 119/41/1 120/39/1
f 121/34/1 122/35/1 123/27/1 124/26/1
f 125/35/1 126/36/1 127/28/1 128/27/1
f 129/36/1 130/37/1 131/29/1 132/28/1
f 133/42/1 134/43/1 135/35/1 136/34/1
f 137/43/1 138/44/1 139/36/1 140/35/1
f 141/44/1 142/45/1 143/37/1 144/36/1
f 145/21/1 146/46/1 147/38/1 148/13/1
f 149/46/1 150/47/1 151/40/1 152/38/1
f 153/7/1 154/8/1 155/9/1 156/10/1
f 157/8/1 158/11/1 159/12/1 160/9/1
f 161/11/1 162/13/1 163/14/1 164/12/1
f 165/24/1 166/48/1 167/49/1 168/50/1
f 169/51/1 170/4/1 171/43/1 172/42/1
f 173/4/1 174/3/1 175/44/1 176/43/1
f 177/3/1 178/6/1 179/45/1 180/44/1
f 181/29/1 182/52/1 183/46/1 184/21/1
f 185/52/1 186/53/1 187/47/1 188/46/1
f 189/18/1 190/19/1 191/8/1 192/7/1
f 193/19/1 194/20/1 195/11/1 196/8/1
f 197/20/1 198/21/1 199/13/1 200/11/1
f 201/54/1 202/1/1 203/4/1 204/51/1
f 205/1/1 206/2/1 207/3/1 208/4/1
f 209/2/1 210/5/1 211/6/1 212/3/1
f 213/37/1 214/55/1 215/52/1 216/29/1
f 217/55/1 218/56/1 219/53/1 220/52/1
f 221/26/1 222/27/1 223/19/1 224/18/1
f 225/27/1 226/28/1 227/20/1 228/19/1
f 229/28/1 230/29/1 231/21/1 232/20/1
f 233/57/1 234/15/1 235/1/1 236/54/1
f 237/15/1 238/16/1 239/2/1 240/1/1
f 241/16/1 242/17/1 243/5/1 244/2/1
f 245/34/1 246/35/1 247/27/1 248/26/1
f 249/35/1 250/36/1 251/28/1 252/27/1
f 253/36/1 254/37/1 255/29/1 256/28/1
f 257/7/1 258/8/1 259/9/1 260/10/1
f 261/8/1 262/11/1 263/12/1 264/9/1
f 265/11/1 266/13/1 267/14/1 268/12/1
f 269/43/1 270/44/1 271/36/1 272/35/1
f 273/44/1 274/45/1 275/37/1 276/36/1
f 277/35/1 278/36/1 279/28/1 280/27/1
f 281/18/1 282/19/1 283/8/1 284/7/1
f 285/19/1 286/20/1 287/11/1 288/8/1
f 289/20/1 290/21/1 291/13/1 292/11/1
f 293/4/1 294/3/1 295/44/1 296/43/1
f 297/3/1 298/6/1 299/45/1 300/44/1
f 301/22/1 302/23/1 303/24/1 304/25/1
f 305/13/1 306/38/1 307/39/1 308/14/1
f 309/38/1 310/40/1 311/41/1 312/39/1
f 313/40/1 314/58/1 315/59/1 316/41/1
f 317/26/1 318/27/1 319/19/1 320/18/1
f 321/27/1 322/28/1 323/20/1 324/19/1
f 325/28/1 326/29/1 327/21/1 328/20/1
f 329/1/1 330/2/1 331/3/1 332/4/1
f 333/2/1 334/5/1 335/6/1 336/3/1
f 337/22/1 338/23/1 339/24/1 340/25/1
f 341/21/1 342/46/1 343/38/1 344/13/1
f 345/46/1 346/47/1 347/40/1 348/38/1
f 349/47/1 350/60/1 351/58/1 352/40/1
f 353/34/1 354/35/1 355/27/1 356/26/1
f 357/35/1 358/36/1 359/28/1 360/27/1
f 361/36/1 362/37/1 363/29/1 364/28/1

